<?xml version="1.0" standalone="no"?>
<!DOCTYPE svg PUBLIC "-//W3C//DTD SVG 20010904//EN"
 "http://www.w3.org/TR/2001/REC-SVG-20010904/DTD/svg10.dtd">
<svg version="1.0" xmlns="http://www.w3.org/2000/svg"
 width="500.000000pt" height="500.000000pt" viewBox="0 0 500.000000 500.000000"
 preserveAspectRatio="xMidYMid meet">
<metadata>
Created by potrace 1.14, written by Peter Selinger 2001-2017
</metadata>
<g transform="translate(0.000000,500.000000) scale(0.100000,-0.100000)"
fill="#000000" stroke="none">
<path d="M3035 4790 c-194 -45 -355 -208 -394 -398 -7 -35 -11 -257 -11 -645
0 -561 1 -596 20 -664 51 -186 177 -313 365 -369 54 -16 116 -18 645 -19 438
-1 603 2 655 12 184 34 339 170 401 353 18 52 19 95 19 695 l0 640 -27 68
c-69 172 -205 291 -379 330 -103 23 -1195 21 -1294 -3z"/>
<path d="M670 4745 c-193 -39 -365 -215 -400 -408 -7 -35 -10 -278 -8 -664 3
-603 3 -609 26 -670 62 -173 209 -306 382 -344 40 -9 215 -13 650 -13 531 0
602 2 660 17 177 48 322 189 372 365 18 62 19 108 19 674 1 661 1 655 -58 771
-31 62 -36 68 -103 136 -61 61 -146 111 -225 131 -67 18 -1232 22 -1315 5z"/>
<path d="M671 2364 c-196 -40 -365 -212 -401 -406 -12 -63 -9 -1265 3 -1308 4
-14 23 -58 43 -99 47 -95 137 -187 225 -229 132 -64 111 -62 793 -59 l621 2
69 27 c172 67 296 206 336 376 9 39 12 210 12 645 0 326 -3 606 -6 622 -3 17
-8 41 -11 55 -12 63 -79 175 -142 237 -35 34 -69 63 -75 63 -6 0 -19 7 -29 16
-9 8 -50 27 -91 41 l-73 26 -609 1 c-423 1 -626 -2 -665 -10z"/>
<path d="M3100 2362 c-193 -14 -371 -156 -443 -355 -22 -61 -22 -68 -25 -669
-2 -517 -1 -616 13 -673 42 -183 150 -307 330 -381 l70 -28 635 0 c695 0 666
-3 790 60 108 54 214 183 251 307 21 70 22 88 22 672 0 330 -3 618 -7 640 -34
192 -182 355 -371 411 -54 16 -115 18 -645 18 -322 1 -601 0 -620 -2z"/>
</g>
</svg>
